<svg width="955" height="225" viewBox="0 0 955 225" fill="none" xmlns="http://www.w3.org/2000/svg">
<g clip-path="url(#clip0_1644_5220)">
<path d="M954.078 205.819C954.102 209.475 953.039 213.056 951.025 216.108C949.01 219.159 946.135 221.544 942.764 222.96C939.392 224.376 935.676 224.758 932.087 224.06C928.497 223.361 925.196 221.612 922.602 219.035C920.008 216.458 918.237 213.169 917.515 209.585C916.793 206 917.151 202.282 918.545 198.902C919.939 195.522 922.305 192.631 925.344 190.597C928.383 188.564 931.958 187.478 935.614 187.478C938.037 187.447 940.442 187.9 942.688 188.81C944.934 189.72 946.976 191.067 948.695 192.775C950.414 194.483 951.775 196.516 952.699 198.755C953.624 200.995 954.092 203.396 954.078 205.819ZM950.679 205.819C950.671 202.842 949.78 199.933 948.12 197.462C946.46 194.99 944.105 193.066 941.352 191.932C938.598 190.798 935.571 190.505 932.651 191.091C929.732 191.677 927.051 193.114 924.948 195.222C922.846 197.33 921.415 200.014 920.837 202.935C920.259 205.856 920.56 208.882 921.701 211.632C922.842 214.382 924.773 216.732 927.249 218.385C929.726 220.039 932.637 220.921 935.614 220.921C937.607 220.952 939.585 220.582 941.432 219.834C943.279 219.086 944.958 217.975 946.367 216.567C947.777 215.158 948.89 213.481 949.639 211.635C950.389 209.789 950.761 207.811 950.732 205.819H950.679ZM937.348 196.595C940.854 196.595 943.6 198.594 943.6 202.113C943.635 203.333 943.26 204.529 942.535 205.51C941.81 206.491 940.777 207.2 939.6 207.525L944.133 215.029H939.974L935.801 207.805H932.588V215.029H928.989V196.595H937.348ZM932.615 205.152H936.614C938.507 205.152 939.934 204.193 939.934 202.3C939.934 200.407 938.601 199.541 936.614 199.541H932.615V205.152Z" fill="#0075FF"/>
<path d="M890.756 74.4312H866.973C863.314 74.4312 860.348 77.3971 860.348 81.0559V90.4397C860.348 94.0985 863.314 97.0644 866.973 97.0644H890.756C894.415 97.0644 897.381 94.0985 897.381 90.4397V81.0559C897.381 77.3971 894.415 74.4312 890.756 74.4312Z" fill="#0075FF"/>
<path d="M435.222 106.275H411.599C410.729 106.265 409.865 106.433 409.061 106.766C408.257 107.1 407.529 107.593 406.92 108.216C406.312 108.839 405.837 109.579 405.523 110.391C405.209 111.203 405.063 112.07 405.094 112.94V183.945C397.322 191.49 387.537 198.474 377.098 198.474C365.1 198.474 356.849 191.13 356.849 173.148V112.766C356.858 111.906 356.694 111.052 356.367 110.256C356.039 109.46 355.555 108.738 354.944 108.132C354.332 107.527 353.605 107.05 352.805 106.731C352.006 106.412 351.15 106.257 350.29 106.275H326.56C325.701 106.255 324.846 106.409 324.047 106.728C323.248 107.047 322.522 107.523 321.912 108.13C321.301 108.736 320.82 109.459 320.497 110.256C320.173 111.053 320.014 111.907 320.028 112.766V173.175C320.028 209.018 340.091 223.893 368.42 223.893C384.417 223.893 395.295 217.229 405.147 209.058C405.179 209.59 405.179 210.125 405.147 210.657V217.469C405.116 218.339 405.262 219.206 405.576 220.018C405.89 220.83 406.366 221.569 406.974 222.192C407.582 222.815 408.31 223.309 409.114 223.642C409.918 223.976 410.782 224.143 411.652 224.133H435.222C436.088 224.137 436.947 223.966 437.746 223.63C438.544 223.294 439.267 222.8 439.87 222.177C440.472 221.555 440.943 220.816 441.253 220.007C441.563 219.198 441.706 218.335 441.674 217.469V112.9C441.701 112.037 441.554 111.178 441.241 110.373C440.928 109.569 440.457 108.836 439.855 108.217C439.253 107.599 438.532 107.108 437.736 106.775C436.94 106.441 436.085 106.271 435.222 106.275Z" fill="#0075FF"/>
<path d="M497.477 175.321C498.97 192.649 506.662 200.18 524.232 200.18C533.231 200.18 541.149 197.595 544.789 193.063C546.207 191.249 548.032 189.795 550.116 188.818C552.2 187.841 554.486 187.368 556.787 187.438H572.397C573.25 187.423 574.097 187.581 574.888 187.902C575.678 188.223 576.396 188.7 576.997 189.305C577.598 189.91 578.071 190.63 578.387 191.423C578.703 192.215 578.856 193.063 578.836 193.916C578.836 216.402 555.92 224.16 521.659 224.16C483.533 224.16 460.63 203.42 460.63 164.324C460.63 125.229 483.773 104.209 521.659 104.209C559.759 104.209 582.662 124.736 582.662 162.778V168.843C582.686 169.695 582.536 170.542 582.223 171.334C581.91 172.126 581.44 172.847 580.841 173.452C580.241 174.058 579.526 174.536 578.737 174.857C577.948 175.178 577.102 175.336 576.25 175.321H497.477ZM497.264 153.074H545.868C545.215 136.879 537.51 128.202 521.659 128.202C506.222 128.202 498.117 136.879 497.237 153.074H497.264Z" fill="#0075FF"/>
<path d="M653.544 224.16C619.163 224.16 597.34 216.389 597.34 193.902C597.311 193.06 597.453 192.22 597.757 191.433C598.06 190.646 598.52 189.929 599.107 189.324C599.695 188.719 600.398 188.239 601.176 187.913C601.953 187.586 602.789 187.42 603.632 187.424H618.963C621.224 187.365 623.468 187.844 625.507 188.822C627.547 189.8 629.325 191.249 630.694 193.049C634.254 197.581 642.026 200.167 651.011 200.167C668.634 200.167 674.513 196.075 674.513 189.97C674.513 172.042 597.193 181.973 597.193 138.319C597.193 113.899 620.856 104.142 650.437 104.142C684.805 104.142 706.614 111.94 706.614 134.44C706.641 135.283 706.498 136.123 706.194 136.909C705.89 137.696 705.431 138.413 704.844 139.019C704.257 139.624 703.554 140.106 702.777 140.434C702 140.763 701.165 140.932 700.322 140.931H684.991C682.731 140.998 680.487 140.522 678.449 139.543C676.41 138.564 674.635 137.112 673.273 135.306C669.701 130.748 661.955 128.162 652.944 128.162C638.48 128.162 632.614 132.254 632.614 138.319C632.614 156.287 709.934 145.903 709.934 189.97C709.92 214.443 686.245 224.16 653.544 224.16Z" fill="#0075FF"/>
<path d="M225.351 154.621C237.722 154.621 243.668 149.475 247.921 140.411L257.932 117.872C259.219 114.981 261.301 112.516 263.935 110.763C266.569 109.009 269.646 108.04 272.81 107.968H292.34C297.872 107.968 298.539 112.273 295.952 117.858L282.541 147.516C278.115 156.98 269.597 164.524 260.452 166.457C269.21 169.03 276.209 175.068 282.541 185.398L300.178 214.243C303.564 219.868 302.098 224.16 296.552 224.16H277.062C270.25 224.16 264.518 219.868 261.132 214.243L247.921 192.489C242.215 183.052 234.936 178.52 225.351 178.52V217.695C225.375 218.54 225.227 219.382 224.918 220.169C224.609 220.956 224.144 221.672 223.552 222.276C222.96 222.879 222.252 223.357 221.471 223.681C220.69 224.004 219.851 224.167 219.006 224.16H194.77C193.922 224.169 193.081 224.008 192.297 223.685C191.513 223.362 190.801 222.885 190.206 222.282C189.61 221.679 189.141 220.962 188.829 220.174C188.516 219.386 188.365 218.543 188.384 217.695V81.7356C188.361 80.887 188.509 80.0425 188.821 79.2528C189.132 78.4631 189.601 77.7446 190.197 77.1406C190.794 76.5366 191.506 76.0596 192.292 75.7383C193.078 75.417 193.921 75.258 194.77 75.2709H219.006C219.852 75.2615 220.691 75.4232 221.473 75.7463C222.255 76.0694 222.964 76.5473 223.556 77.1511C224.149 77.7549 224.614 78.4723 224.922 79.2601C225.23 80.0479 225.376 80.8899 225.351 81.7356V154.621Z" fill="#0075FF"/>
<path d="M766.137 154.301C778.509 154.301 784.454 149.116 788.707 140.012L798.718 117.352C799.998 114.453 802.077 111.979 804.712 110.218C807.346 108.457 810.428 107.482 813.596 107.408H833.126C838.658 107.408 839.325 111.74 836.752 117.352L823.341 147.156C818.901 156.66 810.383 164.245 801.238 166.177C809.996 168.777 816.995 174.841 823.341 185.225L841.018 214.176C844.404 219.828 842.937 224.147 837.392 224.147H817.848C811.036 224.147 805.304 219.828 801.851 214.176L788.64 192.316C782.934 182.839 775.656 178.28 766.071 178.28V217.642C766.098 218.49 765.953 219.335 765.646 220.126C765.338 220.916 764.875 221.637 764.282 222.244C763.69 222.852 762.981 223.333 762.198 223.66C761.415 223.987 760.574 224.153 759.725 224.147H735.556C734.705 224.154 733.862 223.99 733.076 223.664C732.29 223.339 731.577 222.858 730.981 222.251C730.385 221.644 729.918 220.923 729.606 220.131C729.295 219.339 729.147 218.492 729.17 217.642V81.0426C729.147 80.1934 729.295 79.3482 729.607 78.5578C729.918 77.7674 730.386 77.0481 730.983 76.4431C731.579 75.838 732.292 75.3597 733.077 75.0369C733.863 74.7141 734.706 74.5534 735.556 74.5645H759.792C760.639 74.5551 761.479 74.7172 762.262 75.0411C763.045 75.3651 763.754 75.8441 764.347 76.4493C764.94 77.0546 765.404 77.7736 765.712 78.5629C766.02 79.3523 766.164 80.1958 766.137 81.0426V154.301Z" fill="#0075FF"/>
<path d="M866.986 224.16C866.104 224.16 865.231 223.985 864.417 223.645C863.603 223.305 862.865 222.807 862.245 222.18C861.625 221.552 861.135 220.808 860.805 219.99C860.475 219.172 860.31 218.297 860.321 217.415V113.619C860.31 112.738 860.475 111.862 860.805 111.044C861.135 110.227 861.625 109.482 862.245 108.855C862.865 108.228 863.603 107.73 864.417 107.39C865.231 107.05 866.104 106.875 866.986 106.875H891.156C892.042 106.86 892.922 107.025 893.742 107.36C894.563 107.695 895.307 108.192 895.93 108.822C896.553 109.453 897.042 110.203 897.367 111.027C897.692 111.852 897.846 112.734 897.821 113.619V217.415C897.846 218.301 897.692 219.183 897.367 220.007C897.042 220.832 896.553 221.582 895.93 222.212C895.307 222.843 894.563 223.34 893.742 223.675C892.922 224.01 892.042 224.175 891.156 224.16H866.986Z" fill="#0075FF"/>
</g>
<path d="M143.909 130.19C143.909 133.379 137.803 188.657 134.917 215.685C134.075 223.657 126.032 224.175 123.867 224.175H30.9245C21.2508 224.175 17.8035 219.937 16.8682 214.874C15.8795 209.559 10.7487 157.59 8.18328 139.492L7.28809 130.496C7.28809 126.018 10.4413 122.164 14.8239 122.164H135.892C136.954 122.164 138.005 122.374 138.985 122.781C139.965 123.189 140.853 123.785 141.599 124.537C142.345 125.289 142.933 126.18 143.33 127.16C143.726 128.139 143.923 129.187 143.909 130.243V130.19Z" fill="url(#paint0_linear_1644_5220)"/>
<path d="M143.978 75.3038H105.464C105.731 65.8042 110.17 62.9397 119.222 57.1706L140.552 43.5141C143.426 41.7904 145.822 39.3761 147.524 36.4907C149.226 33.6053 150.18 30.3405 150.297 26.9931V6.68821C150.297 0.919175 146.111 -0.626341 140.645 2.90436L112.356 21.1441C102.238 27.7126 96.3588 35.0271 93.6926 44.0471C91.8928 34.5608 84.5606 25.6741 75.3087 21.0109L47.3129 7.00798C41.8204 4.34329 37.6343 5.00946 37.5943 10.7519L37.5277 31.0567C37.5495 34.2798 38.4625 37.434 40.1659 40.1709C41.8692 42.9078 44.2965 45.1208 47.1796 46.5652L68.2164 56.9841C76.8951 61.3542 81.8943 63.0063 82.081 75.2905H6.26572C5.44591 75.2852 4.63313 75.4418 3.87404 75.7513C3.11495 76.0608 2.42449 76.5171 1.84231 77.094C1.26013 77.6709 0.797693 78.357 0.481538 79.113C0.165383 79.8689 0.0017386 80.6799 0 81.4992L0 106.281C0.00523524 107.098 0.171458 107.906 0.489176 108.659C0.806895 109.412 1.26989 110.095 1.85172 110.669C2.43355 111.243 3.12282 111.697 3.88018 112.005C4.63753 112.312 5.44814 112.468 6.26572 112.463H143.978C144.799 112.473 145.614 112.322 146.376 112.016C147.138 111.711 147.832 111.258 148.418 110.683C149.004 110.108 149.471 109.424 149.791 108.668C150.111 107.913 150.279 107.101 150.284 106.281V81.4992C150.281 80.6776 150.114 79.8648 149.795 79.1077C149.475 78.3507 149.009 77.6643 148.423 77.0883C147.837 76.5123 147.142 76.0581 146.379 75.7518C145.616 75.4455 144.8 75.2932 143.978 75.3038Z" fill="url(#paint1_linear_1644_5220)"/>
<path style="mix-blend-mode:hard-light" opacity="0.4" d="M143.978 75.3038H105.464C105.731 65.8042 110.17 62.9397 119.222 57.1706L140.552 43.5141C143.426 41.7904 145.822 39.3761 147.524 36.4907C149.226 33.6053 150.18 30.3405 150.297 26.9931V6.68821C150.297 0.919175 146.111 -0.626341 140.645 2.90436L112.356 21.1441C102.238 27.7126 96.3588 35.0271 93.6926 44.0471C91.8928 34.5608 84.5606 25.6741 75.3087 21.0109L47.3129 7.00798C41.8204 4.34329 37.6343 5.00946 37.5943 10.7519L37.5277 31.0567C37.5495 34.2798 38.4625 37.434 40.1659 40.1709C41.8692 42.9078 44.2965 45.1208 47.1796 46.5652L68.2164 56.9841C76.8951 61.3542 81.8943 63.0063 82.081 75.2905H6.26572C5.44591 75.2852 4.63313 75.4418 3.87404 75.7513C3.11495 76.0608 2.42449 76.5171 1.84231 77.094C1.26013 77.6709 0.797693 78.357 0.481538 79.113C0.165383 79.8689 0.0017386 80.6799 0 81.4992L0 106.281C0.00523524 107.098 0.171458 107.906 0.489176 108.659C0.806895 109.412 1.26989 110.095 1.85172 110.669C2.43355 111.243 3.12282 111.697 3.88018 112.005C4.63753 112.312 5.44814 112.468 6.26572 112.463H143.978C144.799 112.473 145.614 112.322 146.376 112.016C147.138 111.711 147.832 111.258 148.418 110.683C149.004 110.108 149.471 109.424 149.791 108.668C150.111 107.913 150.279 107.101 150.284 106.281V81.4992C150.281 80.6776 150.114 79.8648 149.795 79.1077C149.475 78.3507 149.009 77.6643 148.423 77.0883C147.837 76.5123 147.142 76.0581 146.379 75.7518C145.616 75.4455 144.8 75.2932 143.978 75.3038Z" fill="url(#paint2_linear_1644_5220)" fill-opacity="0.5"/>
<defs>
<linearGradient id="paint0_linear_1644_5220" x1="26.8777" y1="122.316" x2="98.5499" y2="251.092" gradientUnits="userSpaceOnUse">
<stop stop-color="#25A2FA"/>
<stop offset="0.483812" stop-color="#0075FF"/>
<stop offset="1" stop-color="#3F58EA"/>
</linearGradient>
<linearGradient id="paint1_linear_1644_5220" x1="139.516" y1="112.079" x2="14.534" y2="-4.02277" gradientUnits="userSpaceOnUse">
<stop stop-color="#00BBE9"/>
<stop offset="0.1" stop-color="#01C3DC"/>
<stop offset="0.18" stop-color="#02CDCE"/>
<stop offset="0.24" stop-color="#09D1C0"/>
<stop offset="0.37" stop-color="#1BDD9A"/>
<stop offset="0.55" stop-color="#38EF5F"/>
<stop offset="0.59" stop-color="#3FF350"/>
<stop offset="0.67" stop-color="#4BF550"/>
<stop offset="0.82" stop-color="#69F950"/>
<stop offset="1" stop-color="#95FF4F"/>
<stop offset="1" stop-color="#95FF4F"/>
</linearGradient>
<linearGradient id="paint2_linear_1644_5220" x1="5.21255" y1="116.1" x2="159.055" y2="16.1311" gradientUnits="userSpaceOnUse">
<stop stop-color="#01BDE6" stop-opacity="0"/>
<stop offset="0.1" stop-color="#06BEE2" stop-opacity="0.02"/>
<stop offset="0.23" stop-color="#14C2D7" stop-opacity="0.08"/>
<stop offset="0.36" stop-color="#2AC8C4" stop-opacity="0.17"/>
<stop offset="0.51" stop-color="#4AD0AA" stop-opacity="0.31"/>
<stop offset="0.65" stop-color="#73DB88" stop-opacity="0.48"/>
<stop offset="0.81" stop-color="#A5E85F" stop-opacity="0.69"/>
<stop offset="1" stop-color="#EEFB24"/>
</linearGradient>
<clipPath id="clip0_1644_5220">
<rect width="953.848" height="224.16" fill="white" transform="translate(0.230469)"/>
</clipPath>
</defs>
</svg>
